<mxfile host="app.diagrams.net" agent="Mozilla/5.0 (Macintosh; Intel Mac OS X 10_15_7) AppleWebKit/537.36 (KHTML, like Gecko) Chrome/131.0.0.0 Safari/537.36" version="26.0.6">
  <diagram name="Page-1" id="VVcZoympUiWmIFmxc-V6">
    <mxGraphModel dx="1968" dy="1250" grid="1" gridSize="10" guides="1" tooltips="1" connect="1" arrows="1" fold="1" page="1" pageScale="1" pageWidth="850" pageHeight="1100" math="0" shadow="0">
      <root>
        <mxCell id="0" />
        <mxCell id="1" parent="0" />
        <mxCell id="9ULX9tjbyQxFi72w18bL-1" value="External Integrations" style="whiteSpace=wrap;strokeWidth=2;" vertex="1" parent="1">
          <mxGeometry x="1273" y="592" width="273" height="124" as="geometry" />
        </mxCell>
        <mxCell id="9ULX9tjbyQxFi72w18bL-2" value="Data Storage" style="whiteSpace=wrap;strokeWidth=2;" vertex="1" parent="1">
          <mxGeometry x="1273" y="334" width="273" height="238" as="geometry" />
        </mxCell>
        <mxCell id="9ULX9tjbyQxFi72w18bL-3" value="Security" style="whiteSpace=wrap;strokeWidth=2;" vertex="1" parent="1">
          <mxGeometry x="1273" y="190" width="273" height="124" as="geometry" />
        </mxCell>
        <mxCell id="9ULX9tjbyQxFi72w18bL-4" value="Backend Services" style="whiteSpace=wrap;strokeWidth=2;" vertex="1" parent="1">
          <mxGeometry x="477" y="195" width="598" height="479" as="geometry" />
        </mxCell>
        <mxCell id="9ULX9tjbyQxFi72w18bL-5" value="User Interface" style="whiteSpace=wrap;strokeWidth=2;" vertex="1" parent="1">
          <mxGeometry x="70" y="272" width="222" height="228" as="geometry" />
        </mxCell>
        <mxCell id="9ULX9tjbyQxFi72w18bL-6" value="Toolbars" style="whiteSpace=wrap;strokeWidth=2;" vertex="1" parent="1">
          <mxGeometry x="121" y="307" width="119" height="54" as="geometry" />
        </mxCell>
        <mxCell id="9ULX9tjbyQxFi72w18bL-7" value="Drawing Canvas" style="whiteSpace=wrap;strokeWidth=2;" vertex="1" parent="1">
          <mxGeometry x="95" y="411" width="172" height="54" as="geometry" />
        </mxCell>
        <mxCell id="9ULX9tjbyQxFi72w18bL-8" value="API Gateway" style="whiteSpace=wrap;strokeWidth=2;" vertex="1" parent="1">
          <mxGeometry x="502" y="359" width="150" height="54" as="geometry" />
        </mxCell>
        <mxCell id="9ULX9tjbyQxFi72w18bL-9" value="Real-time Collaboration Server" style="whiteSpace=wrap;strokeWidth=2;" vertex="1" parent="1">
          <mxGeometry x="790" y="274" width="260" height="78" as="geometry" />
        </mxCell>
        <mxCell id="9ULX9tjbyQxFi72w18bL-10" value="Application Server" style="whiteSpace=wrap;strokeWidth=2;" vertex="1" parent="1">
          <mxGeometry x="824" y="483" width="191" height="54" as="geometry" />
        </mxCell>
        <mxCell id="9ULX9tjbyQxFi72w18bL-11" value="Authentication Service" style="whiteSpace=wrap;strokeWidth=2;" vertex="1" parent="1">
          <mxGeometry x="1298" y="225" width="223" height="54" as="geometry" />
        </mxCell>
        <mxCell id="9ULX9tjbyQxFi72w18bL-12" value="Main Database" style="whiteSpace=wrap;strokeWidth=2;" vertex="1" parent="1">
          <mxGeometry x="1327" y="379" width="163" height="54" as="geometry" />
        </mxCell>
        <mxCell id="9ULX9tjbyQxFi72w18bL-13" value="Cache" style="whiteSpace=wrap;strokeWidth=2;" vertex="1" parent="1">
          <mxGeometry x="1357" y="483" width="103" height="54" as="geometry" />
        </mxCell>
        <mxCell id="9ULX9tjbyQxFi72w18bL-14" value="Third-party APIs" style="whiteSpace=wrap;strokeWidth=2;" vertex="1" parent="1">
          <mxGeometry x="1322" y="627" width="175" height="54" as="geometry" />
        </mxCell>
        <mxCell id="9ULX9tjbyQxFi72w18bL-15" value="HTTP/WebSockets" style="curved=1;startArrow=none;endArrow=block;exitX=1;exitY=0.5;entryX=0.15;entryY=0;rounded=0;" edge="1" parent="1" source="9ULX9tjbyQxFi72w18bL-6" target="9ULX9tjbyQxFi72w18bL-8">
          <mxGeometry relative="1" as="geometry">
            <Array as="points">
              <mxPoint x="477" y="334" />
            </Array>
          </mxGeometry>
        </mxCell>
        <mxCell id="9ULX9tjbyQxFi72w18bL-16" value="HTTP/WebSockets" style="curved=1;startArrow=none;endArrow=block;exitX=1;exitY=0.5;entryX=0.15;entryY=1;rounded=0;" edge="1" parent="1" source="9ULX9tjbyQxFi72w18bL-7" target="9ULX9tjbyQxFi72w18bL-8">
          <mxGeometry relative="1" as="geometry">
            <Array as="points">
              <mxPoint x="477" y="438" />
            </Array>
          </mxGeometry>
        </mxCell>
        <mxCell id="9ULX9tjbyQxFi72w18bL-17" value="WebSockets" style="curved=1;startArrow=none;endArrow=block;exitX=0.85;exitY=0;entryX=0;entryY=0.5;rounded=0;" edge="1" parent="1" source="9ULX9tjbyQxFi72w18bL-8" target="9ULX9tjbyQxFi72w18bL-9">
          <mxGeometry relative="1" as="geometry">
            <Array as="points">
              <mxPoint x="721" y="313" />
            </Array>
          </mxGeometry>
        </mxCell>
        <mxCell id="9ULX9tjbyQxFi72w18bL-18" value="HTTP" style="curved=1;startArrow=none;endArrow=block;exitX=0.71;exitY=1;entryX=0;entryY=0.5;rounded=0;" edge="1" parent="1" source="9ULX9tjbyQxFi72w18bL-8" target="9ULX9tjbyQxFi72w18bL-10">
          <mxGeometry relative="1" as="geometry">
            <Array as="points">
              <mxPoint x="721" y="510" />
            </Array>
          </mxGeometry>
        </mxCell>
        <mxCell id="9ULX9tjbyQxFi72w18bL-19" value="Authenticate Users" style="curved=1;startArrow=none;endArrow=block;exitX=0.88;exitY=0;entryX=0;entryY=0.5;rounded=0;" edge="1" parent="1" source="9ULX9tjbyQxFi72w18bL-9" target="9ULX9tjbyQxFi72w18bL-11">
          <mxGeometry relative="1" as="geometry">
            <Array as="points">
              <mxPoint x="1075" y="252" />
            </Array>
          </mxGeometry>
        </mxCell>
        <mxCell id="9ULX9tjbyQxFi72w18bL-20" value="Synchronize Data" style="curved=1;startArrow=none;endArrow=block;exitX=0.82;exitY=1;entryX=0;entryY=0.27;rounded=0;" edge="1" parent="1" source="9ULX9tjbyQxFi72w18bL-9" target="9ULX9tjbyQxFi72w18bL-12">
          <mxGeometry relative="1" as="geometry">
            <Array as="points">
              <mxPoint x="1075" y="385" />
              <mxPoint x="1273" y="385" />
            </Array>
          </mxGeometry>
        </mxCell>
        <mxCell id="9ULX9tjbyQxFi72w18bL-21" value="Store/Retrieve Data" style="curved=1;startArrow=none;endArrow=block;exitX=0.8;exitY=0;entryX=0;entryY=0.85;rounded=0;" edge="1" parent="1" source="9ULX9tjbyQxFi72w18bL-10" target="9ULX9tjbyQxFi72w18bL-12">
          <mxGeometry relative="1" as="geometry">
            <Array as="points">
              <mxPoint x="1075" y="437" />
              <mxPoint x="1273" y="437" />
            </Array>
          </mxGeometry>
        </mxCell>
        <mxCell id="9ULX9tjbyQxFi72w18bL-22" value="Cache Data" style="curved=1;startArrow=none;endArrow=block;exitX=1;exitY=0.5;entryX=0;entryY=0.5;rounded=0;" edge="1" parent="1" source="9ULX9tjbyQxFi72w18bL-10" target="9ULX9tjbyQxFi72w18bL-13">
          <mxGeometry relative="1" as="geometry">
            <Array as="points" />
          </mxGeometry>
        </mxCell>
        <mxCell id="9ULX9tjbyQxFi72w18bL-23" value="External Data" style="curved=1;startArrow=none;endArrow=block;exitX=0.66;exitY=1;entryX=0;entryY=0.5;rounded=0;" edge="1" parent="1" source="9ULX9tjbyQxFi72w18bL-10" target="9ULX9tjbyQxFi72w18bL-14">
          <mxGeometry relative="1" as="geometry">
            <Array as="points">
              <mxPoint x="1075" y="654" />
            </Array>
          </mxGeometry>
        </mxCell>
      </root>
    </mxGraphModel>
  </diagram>
</mxfile>
